# AST/ASF file generated using VICON BodyLanguage
# -----------------------------------------------
:version 1.10
:name VICON
:units
  mass 1.0
  length 0.45
  angle deg
:documentation
   .ast/.asf automatically generated from VICON data using
   VICON BodyBuilder and BodyLanguage model FoxedUp or BRILLIANT.MOD
:root
   order TX TY TZ RX RY RZ
   axis XYZ
   position 0 0 0  
   orientation 0 0 0 
:bonedata
  begin
     id 1 
     name lhipjoint
     direction 0.602128 -0.715006 0.355257 
     length 2.21237 
     axis 0 0 0  XYZ
  end
  begin
     id 2 
     name lfemur
     direction 0.34202 -0.939693 0  
     length 6.71649  
     axis 0 0 20  XYZ
    dof rx ry rz
    limits (-160.0 20.0)
           (-70.0 70.0)
           (-60.0 70.0)
  end
  begin
     id 3 
     name ltibia
     direction 0.34202 -0.939693 0   
     length 6.97123   
     axis 0 0 20   XYZ
    dof rx
    limits (-10.0 170.0)
  end
  begin
     id 4 
     name lfoot
     direction 0.0655697 -0.180151 0.981451   
     length 1.80924   
     axis -90 7.62852e-016 20   XYZ
    dof rx rz
    limits (-45.0 90.0)
           (-70.0 20.0)
  end
  begin
     id 5 
     name ltoes
     direction 1.53545e-011 -4.21827e-011 1   
     length 0.916331   
     axis -90 7.62852e-016 20   XYZ
    dof rx
    limits (-90.0 20.0)
  end
  begin
     id 6 
     name rhipjoint
     direction -0.625414 -0.698792 0.347201   
     length 2.2637  
     axis 0 0 0  XYZ 
  end
  begin
     id 7 
     name rfemur
     direction -0.34202 -0.939693 0   
     length 7.07595   
     axis 0 0 -20   XYZ
    dof rx ry rz
    limits (-160.0 20.0)
           (-70.0 70.0)
           (-70.0 60.0)
  end
  begin
     id 8 
     name rtibia
     direction -0.34202 -0.939693 0   
     length 7.22924   
     axis 0 0 -20   XYZ
    dof rx
    limits (-10.0 170.0)
 end
 begin
     id 9 
     name rfoot
     direction -0.0766747 -0.210662 0.974547   
     length 1.98482  
     axis -90 -7.62852e-016 -20   XYZ
    dof rx rz
    limits (-45.0 90.0)
           (-20.0 70.0)
  end
  begin
     id 10 
     name rtoes
     direction -1.53532e-011 -4.21867e-011 1   
     length 0.999842   
     axis -90 -7.62852e-016 -20   XYZ
    dof rx
    limits (-90.0 20.0)
  end
  begin
     id 11 
     name lowerback
     direction -0.0224668 0.997354 -0.0691422   
     length 2.09945   
     axis 0 0 0   XYZ
    dof rx ry rz
    limits (-20.0 45.0)
           (-30.0 30.0)
           (-30.0 30.0)
  end
  begin
     id 12 
     name upperback
     direction 0.0134698 0.998451 -0.0539888   
     length 2.09758   
     axis 0 0 0   XYZ
    dof rx ry rz
    limits (-20.0 45.0)
           (-30.0 30.0)
           (-30.0 30.0)
  end
  begin
     id 13 
     name thorax
     direction 0.0241905 0.99948 -0.0213333   
     length 2.10428   
     axis 0 0 0   XYZ
    dof rx ry rz
    limits (-20.0 45.0)
           (-30.0 30.0)
           (-30.0 30.0)
  end
  begin
     id 14 
     name lowerneck
     direction -0.00866847 0.995978 0.0891737   
     length 1.3959   
     axis 0 0 0   XYZ
    dof rx ry rz
    limits (-20.0 45.0)
           (-30.0 30.0)
           (-30.0 30.0)
  end
  begin
     id 15 
     name upperneck
     direction 0.0680679 0.992203 0.104404   
     length 1.39452   
     axis 0 0 0   XYZ
    dof rx ry rz
    limits (-20.0 45.0)
           (-30.0 30.0)
           (-30.0 30.0)
  end
  begin
     id 16
     name head
     direction 0.0242216 0.999358 0.0264054  
     length 1.40433  
     axis 0 0 0   XYZ
    dof rx ry rz
    limits (-20.0 45.0)
           (-30.0 30.0)
           (-30.0 30.0)
  end
  begin
     id 17 
     name lclavicle
     direction 0.929368 0.362991 -0.0671771  
     length 3.04887  
     axis 0 0 0   XYZ
    dof ry rz
    limits (-20.0 10.0)
           (0.0 20.0)
  end
  begin
     id 18 
     name lhumerus
     direction 1 -4.48967e-011 -7.13741e-028   
     length 4.77195   
     axis -180 -30 -90   XYZ
    dof rx ry rz
    limits (-60.0 90.0)
           (-90.0 90.0)
           (-90.0 90.0)
  end
  begin
     id 19
     name lradius
     direction 1 -4.48977e-011 3.60404e-027   
     length 2.98444   
     axis -180 -30 -90   XYZ
    dof rx
    limits (-10.0 170.0)
  end
  begin
     id 20
     name lwrist
     direction 1 -4.48997e-011 7.54877e-027   
     length 1.49222   
     axis -7.18178e-015 90 90   XYZ
    dof ry
    limits (-180.0 0.0)
 end
  begin
     id 21 
     name lhand
     direction 1 -4.489e-011 1.51105e-026   
     length 0.992285   
     axis -9.63605e-015 90 90   XYZ
    dof rx rz
    limits (-90.0 90.0)
           (-45.0 45.0)
  end
  begin
     id 22 
     name lfingers
     direction 1 -4.48998e-011 3.01948e-026   
     length 0.800006   
     axis -1.92718e-014 90 90   XYZ
    dof rx
    limits (0.0 90.0)
  end
  begin
     id 23
     name lthumb
     direction 0.707107 -6.34881e-011 0.707107   
     length 1.14865   
     axis -90 45 -3.53137e-014   XYZ
    dof rx rz
    limits (-45.0 45.0)
           (-45.0 45.0)
  end
  begin
     id 24 
     name rclavicle
     direction -0.945672 0.324529 0.0196374   
     length 3.4236  
     axis 0 0 0   XYZ 
    dof ry rz
    limits (-10.0 20.0)
           (-20.0 0.0)
  end
  begin
     id 25 
     name rhumerus
     direction -1 -4.4896e-011 1.02757e-029  
     length 4.62052   
     axis -180 30 90   XYZ
    dof rx ry rz
    limits (-90.0 60.0)
           (-90.0 90.0)
           (-90.0 90.0)
  end
  begin
     id 26 
     name rradius
     direction -1 -4.48982e-011 3.85962e-027   
     length 2.95332   
     axis -180 30 90   XYZ
    dof rx
    limits (-10.0 170.0)
  end
  begin
     id 27 
     name rwrist
     direction -1 -4.48961e-011 7.55118e-027   
     length 1.47666   
     axis -7.18178e-015 -90 -90   XYZ
    dof ry
    limits (-180.0 0.0)
  end
  begin
     id 28
     name rhand
     direction -1 -4.48984e-011 1.50994e-026   
     length 0.990956   
     axis -9.63605e-015 -90 -90   XYZ
    dof rx rz
    limits (-90.0 90.0)
           (-45.0 45.0)
  end
  begin
     id 29
     name rfingers
     direction -1 -4.4892e-011 3.02158e-026   
     length 0.798934   
     axis -1.92718e-014 -90 -90   XYZ
    dof rx
    limits (0.0 90.0)
  end
  begin
     id 30
     name rthumb
     direction -0.707107 -6.34916e-011 0.707107   
     length 1.14711   
     axis -90 -45 3.53137e-014   XYZ
    dof rx rz
    limits (-45.0 45.0)
           (-45.0 45.0)
  end
:hierarchy
  begin
    root lhipjoint rhipjoint lowerback
    lhipjoint lfemur
    lfemur ltibia
    ltibia lfoot
    lfoot ltoes
    rhipjoint rfemur
    rfemur rtibia
    rtibia rfoot
    rfoot rtoes
    lowerback upperback
    upperback thorax
    thorax lowerneck lclavicle rclavicle
    lowerneck upperneck
    upperneck head
    lclavicle lhumerus
    lhumerus lradius
    lradius lwrist
    lwrist lhand lthumb
    lhand lfingers
    rclavicle rhumerus
    rhumerus rradius
    rradius rwrist
    rwrist rhand rthumb
    rhand rfingers
  end

#!OML:ASF H:\ManfredObstacles\Project 1\Capture day 1\Session 1\Male.ASF
:FULLY-SPECIFIED
:DEGREES
83
root 11.6446 16.0709 27.4837 -171.06 -2.66434 -178.762
lowerback -9.79634 0.0477192 -2.4761
upperback 2.4564 0.358047 0.295998
thorax 8.09656 0.0436969 1.76833
lowerneck 0.883865 -1.45716 -4.81225
upperneck 2.98983 -2.36251 8.85584
head 0.978506 -1.23993 3.71675
rclavicle 1.2921e-015 1.43125e-014
rhumerus -33.4088 -21.5085 -77.3601
rradius 28.3826
rwrist 28.6645
rhand -0.915585 -6.62456
rfingers 7.12502
rthumb 24.7131 -35.0484
lclavicle 1.2921e-015 1.43125e-014
lhumerus -36.8009 36.779 65.8053
lradius 12.3421
lwrist -52.5133
lhand -9.3744 7.72811
lfingers 7.12502
lthumb 16.586 37.0393
rfemur 1.23094 -2.21705 23.5996
rtibia 19.709
rfoot -23.3271 10.8706
rtoes 0.91572
lfemur -30.8749 -0.662813 -19.913
ltibia 21.3043
lfoot 5.24084 -5.52449
ltoes 5.56561
84
root 11.6145 16.0852 27.3 -171.096 -2.72956 -179.102
lowerback -9.85264 -0.124805 -3.22614
upperback 2.46078 0.221845 0.343884
thorax 8.14121 -0.0619329 2.2201
lowerneck 0.835697 -1.45948 -4.95079
upperneck 3.05916 -2.36357 8.81664
head 1.01108 -1.23868 3.72985
rclavicle 5.1684e-015 -3.18055e-015
rhumerus -33.6405 -21.7244 -77.1255
rradius 28.2602
rwrist 28.9358
rhand -1.25711 -6.61068
rfingers 7.12502
rthumb 24.3857 -35.079
lclavicle 5.1684e-015 -3.18055e-015
lhumerus -37.7734 39.0078 64.0205
lradius 11.9103
lwrist -54.8017
lhand -9.36275 7.7257
lfingers 7.12502
lthumb 16.5972 37.036
rfemur 0.891341 -1.53264 23.2674
rtibia 21.7287
rfoot -21.909 10.7255
rtoes 4.48006
lfemur -30.254 -0.481787 -20.412
ltibia 21.6346
lfoot 4.71289 -6.3218
ltoes 6.95326
85
root 11.5541 16.1071 27.0647 -171.177 -2.84239 -179.552
lowerback -10.5295 -0.19954 -3.51787
upperback 2.56363 0.20461 0.119351
thorax 8.6475 -0.0903705 2.14736
lowerneck 0.850654 -1.54373 -4.75797
upperneck 3.14631 -2.48334 8.71063
head 1.04051 -1.29768 3.65386
rclavicle 8.05078e-015 -1.78906e-015
rhumerus -34.2638 -22.6653 -76.6436
rradius 28.0204
rwrist 29.8369
rhand -1.52079 -5.80744
rfingers 7.12502
rthumb 24.1329 -34.3095
lclavicle 8.05078e-015 -1.78906e-015
lhumerus -38.705 40.931 62.0494
lradius 11.4957
lwrist -57.3079
lhand -9.22977 7.40752
lfingers 7.12502
lthumb 16.7253 36.707
rfemur 0.600267 -2.03672 22.4165
rtibia 24.2543
rfoot -20.9967 11.5259
rtoes 5.61206
lfemur -29.229 -0.191607 -21.2614
ltibia 21.9098
lfoot 3.8207 -7.5367
ltoes 5.24274
86
root 11.5076 16.1301 26.874 -171.262 -2.77307 -179.585
lowerback -10.5043 -0.148822 -3.52503
upperback 2.46251 0.278996 0.00250719
thorax 8.5187 -0.0478937 2.03955
lowerneck 0.857136 -1.6358 -4.50803
upperneck 3.39288 -2.6308 8.60986
head 1.12347 -1.37035 3.56872
rclavicle 1.31695e-014 -4.77083e-015
rhumerus -35.048 -23.2431 -76.2764
rradius 28.0239
rwrist 30.1917
rhand -1.35663 -5.19671
rfingers 7.12502
rthumb 24.2903 -33.6778
lclavicle 1.31695e-014 -4.77083e-015
lhumerus -39.0162 41.2123 61.2841
lradius 11.3774
lwrist -58.051
lhand -8.86343 7.76259
lfingers 7.12502
lthumb 17.0779 37.032
rfemur -0.324704 -2.17836 22.1263
rtibia 27.3213
rfoot -19.1461 12.0087
rtoes 8.89777
lfemur -28.4251 0.057932 -21.467
ltibia 22.0884
lfoot 3.08153 -8.12162
ltoes 5.12126
87
root 11.4573 16.1576 26.6819 -171.267 -2.63166 -179.585
lowerback -10.6047 -0.111689 -3.5222
upperback 2.35981 0.334267 -0.0507338
thorax 8.46229 -0.0171892 1.99137
lowerneck 0.799829 -1.65255 -4.45351
upperneck 3.67696 -2.68507 8.66034
head 1.22933 -1.39661 3.57534
rclavicle 1.63997e-015 -2.34566e-014
rhumerus -35.6782 -23.0461 -76.1698
rradius 28.231
rwrist 29.7924
rhand -0.858397 -5.08961
rfingers 7.12502
rthumb 24.7679 -33.5059
lclavicle 1.63997e-015 -2.34566e-014
lhumerus -38.3622 39.6456 62.3738
lradius 11.6253
lwrist -56.4007
lhand -8.44776 8.34336
lfingers 7.12502
lthumb 17.478 37.5776
rfemur -1.60643 -2.64106 21.769
rtibia 30.7327
rfoot -17.155 12.2334
rtoes 9.00066
lfemur -27.7166 0.379343 -21.6406
ltibia 22.3214
lfoot 2.30337 -8.60623
ltoes 8.32337
88
root 11.4038 16.1742 26.491 -171.313 -2.53114 -179.505
lowerback -10.5961 -0.0167074 -3.2622
upperback 2.23678 0.433732 -0.207481
thorax 8.3196 0.0519376 1.695
lowerneck 0.743902 -1.68354 -4.30856
upperneck 3.90146 -2.76908 8.85532
head 1.31946 -1.4389 3.61465
rclavicle 9.24349e-015 3.18055e-015
rhumerus -36.4022 -23.0543 -76.1215
rradius 28.3574
rwrist 29.6512
rhand -0.494518 -4.84016
rfingers 7.12502
rthumb 25.1166 -33.2081
lclavicle 9.24349e-015 3.18055e-015
lhumerus -37.3044 37.3698 63.8712
lradius 11.9195
lwrist -54.1246
lhand -8.03593 8.72249
lfingers 7.12502
lthumb 17.8743 37.9211
rfemur -3.13922 -3.52934 21.4292
rtibia 34.6239
rfoot -15.048 12.4782
rtoes 5.42282
lfemur -27.0102 1.09724 -21.858
ltibia 22.5745
lfoot 1.63543 -9.63745
ltoes 10.0964
89
root 11.3464 16.1787 26.3076 -171.521 -2.40931 -179.182
lowerback -10.3399 0.0793798 -2.75963
upperback 2.15574 0.488102 -0.259115
thorax 8.08343 0.109241 1.36428
lowerneck 0.616348 -1.71169 -4.1702
upperneck 4.10833 -2.83971 8.97564
head 1.41454 -1.47138 3.62879
rclavicle 4.02539e-015 -1.39149e-014
rhumerus -36.9877 -22.9968 -76.0672
rradius 28.4441
rwrist 29.6786
rhand -0.201487 -4.64071
rfingers 7.12502
rthumb 25.3974 -32.9691
lclavicle 4.02539e-015 -1.39149e-014
lhumerus -36.323 35.2268 65.3311
lradius 12.2639
lwrist -51.8589
lhand -7.75478 8.91934
lfingers 7.12502
lthumb 18.1448 38.093
rfemur -4.76224 -4.69662 21.2586
rtibia 38.8192
rfoot -11.4742 13.0439
rtoes 9.14274
lfemur -26.2068 2.06006 -21.8779
ltibia 22.8456
lfoot 1.05524 -10.8799
ltoes 10.8395
90
root 11.2914 16.1804 26.1355 -171.713 -2.18753 -179.011
lowerback -10.1306 0.0235969 -2.69248
upperback 2.18638 0.389697 -0.12165
thorax 7.99921 0.0627682 1.4542
lowerneck 0.41735 -1.62967 -4.30395
upperneck 4.1693 -2.72574 9.00682
head 1.46489 -1.40935 3.66642
rclavicle -2.48481e-015 -1.39149e-014
rhumerus -37.03 -22.4873 -76.0457
rradius 28.4599
rwrist 29.689
rhand 0.0638138 -4.63102
rfingers 7.12502
rthumb 25.6515 -32.923
lclavicle -2.48481e-015 -1.39149e-014
lhumerus -35.4252 33.2501 67.1084
lradius 12.7943
lwrist -49.3614
lhand -7.83547 8.69299
lfingers 7.12502
lthumb 18.0671 37.8739
rfemur -6.66311 -5.89471 20.8905
rtibia 43.1838
rfoot -7.63516 13.1201
rtoes 12.6145
lfemur -25.4164 2.85456 -21.9908
ltibia 23.0662
lfoot 0.428194 -11.8415
ltoes 11.2481
91
root 11.2447 16.178 25.9709 -171.781 -2.02577 -179.206
lowerback -10.0548 -0.111757 -3.07302
upperback 2.25872 0.253275 -0.0786229
thorax 8.03942 -0.0246474 1.69105
lowerneck 0.266275 -1.55711 -4.41821
upperneck 4.0607 -2.61038 9.05437
head 1.45129 -1.34818 3.70588
rclavicle 3.67752e-015 -1.15295e-014
rhumerus -36.8661 -22.2603 -75.9987
rradius 28.405
rwrist 29.8925
rhand 0.164025 -4.47446
rfingers 7.12502
rthumb 25.7475 -32.7525
lclavicle 3.67752e-015 -1.15295e-014
lhumerus -34.4103 31.1229 68.9488
lradius 13.3844
lwrist -46.8229
lhand -8.09724 8.25424
lfingers 7.12502
lthumb 17.8153 37.4582
rfemur -8.84169 -7.00966 20.1975
rtibia 47.7234
rfoot -4.11759 12.6859
rtoes 18.1997
lfemur -24.662 3.48787 -22.4285
ltibia 23.0654
lfoot 0.222024 -12.492
ltoes 13.3352
92
root 11.2028 16.1829 25.8065 -171.832 -1.94726 -179.557
lowerback -9.89111 -0.270534 -3.57755
upperback 2.28969 0.103129 -0.150543
thorax 7.98779 -0.120834 1.87324
lowerneck 0.207554 -1.53117 -4.37324
upperneck 3.92905 -2.5635 9.07173
head 1.41504 -1.32351 3.70299
rclavicle 8.34896e-015 2.5842e-014
rhumerus -36.8927 -22.2527 -75.9267
rradius 28.4714
rwrist 30.0749
rhand 0.0651032 -4.2242
rfingers 7.12502
rthumb 25.6527 -32.516
lclavicle 8.34896e-015 2.5842e-014
lhumerus -33.5096 28.8541 70.5659
lradius 14.0196
lwrist -44.1905
lhand -8.31609 8.06227
lfingers 7.12502
lthumb 17.6047 37.2852
rfemur -11.4594 -8.34508 19.5507
rtibia 52.2965
rfoot -1.98802 11.6431
rtoes 18.5949
lfemur -23.7185 4.15478 -23.0292
ltibia 22.6755
lfoot 0.289555 -13.1718
ltoes 14.4969
93
root 11.1673 16.1984 25.6526 -171.919 -1.93647 -180.062
lowerback -9.55857 -0.502526 -4.28117
upperback 2.31367 -0.130341 -0.257748
thorax 7.84077 -0.265166 2.11689
lowerneck 0.192016 -1.47709 -4.34502
upperneck 3.7964 -2.48054 9.09267
head 1.36838 -1.28252 3.70539
rclavicle 2.5345e-015 1.19271e-015
rhumerus -36.9818 -22.3655 -75.8424
rradius 28.5229
rwrist 30.2355
rhand -0.267502 -4.09093
rfingers 7.12502
rthumb 25.3341 -32.4282
lclavicle 2.5345e-015 1.19271e-015
lhumerus -32.7293 26.5492 72.0592
lradius 14.7
lwrist -41.6375
lhand -8.50824 8.08547
lfingers 7.12502
lthumb 17.4198 37.3249
rfemur -13.9346 -9.34464 18.7921
rtibia 56.6265
rfoot -1.91144 10.1345
rtoes 15.0036
lfemur -22.6537 4.90846 -23.8051
ltibia 22.0334
lfoot 0.045068 -14.2175
ltoes 12.1528
